C:\Users\r0593348\3dpredictsim\Results\Batchsim_tmt_linear_v2\Pog_s1_tmt_bCst_d00_k250_ig24_act_GRF.mot
nRows=25
nColumns=19

name C:\Users\r0593348\3dpredictsim\Results\Batchsim_tmt_linear_v2\Pog_s1_tmt_bCst_d00_k250_ig24_act_GRF.mot
datacolumns 19
datarows 25
range 0.5290305078 0.7829651515
endheader
time 	ground_force_vx	ground_force_vy	ground_force_vz	ground_force_px	ground_force_py	ground_force_pz	1_ground_force_vx	1_ground_force_vy	1_ground_force_vz	1_ground_force_px	1_ground_force_py	1_ground_force_pz	ground_torque_x	ground_torque_y	ground_torque_z	1_ground_torque_x	1_ground_torque_y	1_ground_torque_z
        0.5290305078	       17.1706609113	      287.4244206436	       10.9218109024	        0.3366294021	        0.0000000000	        0.0450408284	      -55.7451518208	       43.5225317307	       -5.5544370274	        0.9647668460	        0.0000000000	       -0.0451724134	        0.0000000000	        0.0000000000	        0.0000000000	        0.0000000000	        0.0000000000	        0.0000000000	
        0.5396111179	       24.3989548659	      259.5681279308	       11.1455303215	        0.3370932533	        0.0000000000	        0.0450338064	     -118.6514568123	      106.8498758980	      -15.0039554517	        0.9602847330	        0.0000000000	       -0.0466230653	        0.0000000000	        0.0000000000	        0.0000000000	        0.0000000000	        0.0000000000	        0.0000000000	
        0.5501917281	       31.1712762410	      223.7068665611	       13.7499284464	        0.3376787735	        0.0000000000	        0.0451646350	     -176.3774732815	      239.4605987644	      -20.7825565870	        0.9304907891	        0.0000000000	       -0.0527660216	        0.0000000000	        0.0000000000	        0.0000000000	        0.0000000000	        0.0000000000	        0.0000000000	
        0.5607723382	       31.6725817917	      181.4727371049	       16.3479682306	        0.3380453969	        0.0000000000	        0.0453668365	     -102.9386141609	      462.1789984069	        4.6393579321	        0.8895507240	        0.0000000000	       -0.0603179043	        0.0000000000	        0.0000000000	        0.0000000000	        0.0000000000	        0.0000000000	        0.0000000000	
        0.5713529484	       24.0422391171	      130.6393998313	       17.3820624153	        0.3380584388	        0.0000000000	        0.0456420578	     -122.7613727507	      702.3972004563	       25.0827640389	        0.8780019859	        0.0000000000	       -0.0621123195	        0.0000000000	        0.0000000000	        0.0000000000	        0.0000000000	        0.0000000000	        0.0000000000	
        0.5819335585	        7.8716480591	       67.3706014842	       13.8214775625	        0.3373248430	        0.0000000000	        0.0460489776	     -130.5726489645	      844.1865174624	       28.4845370272	        0.8721154287	        0.0000000000	       -0.0626803794	        0.0000000000	        0.0000000000	        0.0000000000	        0.0000000000	        0.0000000000	        0.0000000000	
        0.5925141687	       -9.5993517708	       14.3680512250	        5.0191518162	        0.3304442679	        0.0000000000	        0.0467482559	     -131.2536002631	      944.1721770375	       26.7797974106	        0.8673992697	        0.0000000000	       -0.0629638984	        0.0000000000	        0.0000000000	        0.0000000000	        0.0000000000	        0.0000000000	        0.0000000000	
        0.6030947788	      -14.8179253601	       12.8550068745	        0.9673746033	        0.3332929328	        0.0000000000	        0.0435079002	     -124.6815794963	      976.4514506998	       21.8000635738	        0.8644287508	        0.0000000000	       -0.0628657133	        0.0000000000	        0.0000000000	        0.0000000000	        0.0000000000	        0.0000000000	        0.0000000000	
        0.6136753890	      -19.6243418235	       14.4686058221	        0.4489240722	        0.3445110944	        0.0000000000	        0.0430432737	     -113.0831923526	      967.5126291106	       18.4333920159	        0.8626610202	        0.0000000000	       -0.0625242661	        0.0000000000	        0.0000000000	        0.0000000000	        0.0000000000	        0.0000000000	        0.0000000000	
        0.6242559992	      -21.0120368991	       13.7429587041	        0.2345827815	        0.3600628460	        0.0000000000	        0.0429245532	      -98.9741619247	      940.7212329135	       18.1570360333	        0.8618727020	        0.0000000000	       -0.0620725495	        0.0000000000	        0.0000000000	        0.0000000000	        0.0000000000	        0.0000000000	        0.0000000000	
        0.6348366093	      -19.9398007676	       11.8259508055	       -0.0456109188	        0.3791310525	        0.0000000000	        0.0428811585	      -86.4876998475	      902.2714925777	       19.6597681655	        0.8626501628	        0.0000000000	       -0.0617188410	        0.0000000000	        0.0000000000	        0.0000000000	        0.0000000000	        0.0000000000	        0.0000000000	
        0.6454172195	      -15.6896466021	        8.5930560283	       -0.1622603750	        0.0000000000	        0.0000000000	        0.0000000000	      -75.0776027432	      860.5434593396	       20.5800450842	        0.8646436391	        0.0000000000	       -0.0614851476	        0.0000000000	        0.0000000000	        0.0000000000	        0.0000000000	        0.0000000000	        0.0000000000	
        0.6559978296	      -10.2004866046	        5.2826558358	       -0.0975146485	        0.0000000000	        0.0000000000	        0.0000000000	      -65.0219823377	      822.6475147350	       20.8369776591	        0.8673147897	        0.0000000000	       -0.0613134344	        0.0000000000	        0.0000000000	        0.0000000000	        0.0000000000	        0.0000000000	        0.0000000000	
        0.6665784398	       -6.1819956595	        3.0376298951	       -0.0765364562	        0.0000000000	        0.0000000000	        0.0000000000	      -55.8471457637	      790.5723232099	       21.0309515298	        0.8701176294	        0.0000000000	       -0.0611474765	        0.0000000000	        0.0000000000	        0.0000000000	        0.0000000000	        0.0000000000	        0.0000000000	
        0.6771590499	       -4.2201457192	        1.9872464535	       -0.0621922736	        0.0000000000	        0.0000000000	        0.0000000000	      -47.0826471348	      762.8597114952	       21.7889982758	        0.8726581837	        0.0000000000	       -0.0609537728	        0.0000000000	        0.0000000000	        0.0000000000	        0.0000000000	        0.0000000000	        0.0000000000	
        0.6877396601	       -3.1565753654	        1.4378399392	       -0.0462201809	        0.0000000000	        0.0000000000	        0.0000000000	      -39.8154770050	      737.8058474543	       22.4800945423	        0.8748457946	        0.0000000000	       -0.0607578141	        0.0000000000	        0.0000000000	        0.0000000000	        0.0000000000	        0.0000000000	        0.0000000000	
        0.6983202702	       -2.3156540205	        1.0239774169	       -0.0327488391	        0.0000000000	        0.0000000000	        0.0000000000	      -33.4165281992	      712.9949299804	       23.0878503384	        0.8768680924	        0.0000000000	       -0.0605884563	        0.0000000000	        0.0000000000	        0.0000000000	        0.0000000000	        0.0000000000	        0.0000000000	
        0.7089008804	       -1.7082723598	        0.7357692433	       -0.0232941576	        0.0000000000	        0.0000000000	        0.0000000000	      -27.4394835716	      688.8497062719	       23.6943147059	        0.8787675499	        0.0000000000	       -0.0604464762	        0.0000000000	        0.0000000000	        0.0000000000	        0.0000000000	        0.0000000000	        0.0000000000	
        0.7194814906	       -1.3154721962	        0.5540302066	       -0.0171425398	        0.0000000000	        0.0000000000	        0.0000000000	      -22.0336876651	      666.1704050869	       24.3933198909	        0.8805360942	        0.0000000000	       -0.0603297142	        0.0000000000	        0.0000000000	        0.0000000000	        0.0000000000	        0.0000000000	        0.0000000000	
        0.7300621007	       -1.0784972558	        0.4457772390	       -0.0135639079	        0.0000000000	        0.0000000000	        0.0000000000	      -17.0275728531	      645.7078942827	       25.2103304504	        0.8821471964	        0.0000000000	       -0.0602418704	        0.0000000000	        0.0000000000	        0.0000000000	        0.0000000000	        0.0000000000	        0.0000000000	
        0.7406427109	       -0.9448415424	        0.3843079063	       -0.0118982092	        0.0000000000	        0.0000000000	        0.0000000000	      -12.2544820170	      627.1792512923	       25.9664977122	        0.8836356896	        0.0000000000	       -0.0601630784	        0.0000000000	        0.0000000000	        0.0000000000	        0.0000000000	        0.0000000000	        0.0000000000	
        0.7512233210	       -0.8799668920	        0.3529760759	       -0.0116327624	        0.0000000000	        0.0000000000	        0.0000000000	       -7.8239958170	      609.6992822554	       26.4236608370	        0.8850968386	        0.0000000000	       -0.0600530987	        0.0000000000	        0.0000000000	        0.0000000000	        0.0000000000	        0.0000000000	        0.0000000000	
        0.7618039312	       -0.8608103985	        0.3410895884	       -0.0124443495	        0.0000000000	        0.0000000000	        0.0000000000	       -3.5553421855	      593.6767094731	       26.6411944635	        0.8865290532	        0.0000000000	       -0.0598994734	        0.0000000000	        0.0000000000	        0.0000000000	        0.0000000000	        0.0000000000	        0.0000000000	
        0.7723845413	       -0.8785857243	        0.3442330675	       -0.0143493457	        0.0000000000	        0.0000000000	        0.0000000000	        0.9010471157	      579.6459381980	       26.6491060882	        0.8879092880	        0.0000000000	       -0.0596991233	        0.0000000000	        0.0000000000	        0.0000000000	        0.0000000000	        0.0000000000	        0.0000000000	
        0.7829651515	       -0.9408660227	        0.3645864688	       -0.0174210336	        0.0000000000	        0.0000000000	        0.0000000000	        5.5421648025	      567.4676444645	       26.3154776796	        0.8892491682	        0.0000000000	       -0.0594442243	        0.0000000000	        0.0000000000	        0.0000000000	        0.0000000000	        0.0000000000	        0.0000000000	
